<svg width="57" height="37" viewBox="0 0 57 37" fill="none" xmlns="http://www.w3.org/2000/svg">
<g clip-path="url(#clip0_18_136)">
<path d="M15.406 25.3338C18.3019 24.6749 19.9416 25.8382 22.3699 27.1677C45.0994 39.6121 65.8967 13.1892 46.1451 7.44646C40.9616 5.93935 34.9808 8.95856 29.72 8.88076C23.0627 8.7823 18.9457 5.28653 11.9303 7.43691C-3.72873 12.2368 0.185217 32.1678 15.406 25.3338Z" fill="#0088AA"/>
<path d="M16.4846 23.9677C18.9923 23.403 20.3986 24.3404 22.4848 25.4068C42.0119 35.3893 60.2125 13.5846 43.1991 9.05965C38.7341 7.87214 33.5405 10.3955 28.9961 10.3782C23.2455 10.3564 19.7195 7.53216 13.6397 9.35367C0.0689648 13.4195 3.27452 29.6941 16.4846 23.9677Z" fill="#0088AA"/>
<path d="M15.3198 24.5232C18.0594 23.8999 19.6106 25.0004 21.9078 26.2581C43.4105 38.0308 63.0852 13.0341 44.3998 7.60134C39.4961 6.17558 33.838 9.03183 28.8612 8.95822C22.5632 8.86508 18.6684 5.55799 12.0317 7.59231C-2.78217 12.1331 0.92052 30.9884 15.3198 24.5232Z" fill="#00AAD4"/>
<path d="M16.6729 23.5219C19.0959 22.9763 20.4547 23.882 22.4704 24.9124C41.3377 34.5576 58.9233 13.4896 42.4848 9.11753C38.1707 7.97015 33.1525 10.4082 28.7617 10.3915C23.2054 10.3704 19.7985 7.64166 13.9242 9.40162C0.811908 13.3301 3.90917 29.0548 16.6729 23.5219Z" fill="#00AAD4"/>
</g>
<defs>
<clipPath id="clip0_18_136">
<rect width="52.1048" height="27.2949" fill="white" transform="translate(0 9.55273) rotate(-10.5642)"/>
</clipPath>
</defs>
</svg>
