<svg width="41" height="17" viewBox="0 0 41 17" fill="none" xmlns="http://www.w3.org/2000/svg">
<g clip-path="url(#clip0_18_85)">
<path d="M35.7244 15.8761C46.7626 12.9265 37.0981 11.9278 36.8117 9.36742C36.5068 6.64148 40.6743 4.88215 37.4675 2.02544C32.7891 -2.1422 3.23591 2.14202 0.280915 8.17929C-1.28828 11.3853 9.93882 15.9978 14.3284 16.8395C16.5302 17.2617 33.8436 16.8265 36.4113 15.8202" fill="#006680"/>
<path d="M38.2269 15.1245C38.2269 15.1245 36.4903 15.8032 36.3127 15.852C36.1352 15.9009 35.2812 15.8698 35.2812 15.8698L38.2269 15.1245Z" fill="#006680"/>
<path d="M36.246 15.8823C36.246 15.8823 38.7509 15.2509 39.6757 14.5558C40.6005 13.8606 40.6005 13.8606 40.6005 13.8606L36.929 14.9156L36.246 15.8823Z" fill="#006680"/>
<path d="M34.9684 15.2321C45.813 12.3354 36.318 11.3547 36.0366 8.84036C35.737 6.16341 39.8315 4.4357 36.6809 1.63034C32.0845 -2.4624 3.04974 1.74482 0.146584 7.67358C-1.39509 10.8219 9.63509 15.3516 13.9477 16.1782C16.1108 16.5928 33.1206 16.1654 35.6432 15.1772" fill="#00AAD4"/>
<path d="M37.4269 14.494C37.4269 14.494 35.7209 15.1604 35.5464 15.2084C35.3719 15.2564 34.533 15.2259 34.533 15.2259L37.4269 14.494Z" fill="#00AAD4"/>
<path d="M35.4808 15.2382C35.4808 15.2382 37.9417 14.6181 38.8503 13.9355C39.7589 13.2528 39.7589 13.2528 39.7589 13.2528L36.1518 14.2889L35.4808 15.2382Z" fill="#00AAD4"/>
</g>
<defs>
<clipPath id="clip0_18_85">
<rect width="41" height="17" fill="white"/>
</clipPath>
</defs>
</svg>
