<svg width="35" height="25" viewBox="0 0 35 25" fill="none" xmlns="http://www.w3.org/2000/svg">
<g filter="url(#filter0_d_18_130)">
<path d="M6.02026 17.3746L12.2919 7.29564L26.9651 6.00647L33 12.2179L32.29 15.851L12.5285 23L6.02026 19.6013V17.3746Z" fill="#7F7F7F"/>
<path d="M6 17.3533L12.5917 20.4152L12.6339 22.9056L6.04226 19.6395L6 17.3533Z" fill="#636363"/>
<path d="M12.3592 20.3781L27.4623 15.0743L28.801 12.091L26.9602 6L32.9429 12.2153L32.2735 15.8616L12.5265 22.9471L12.3592 20.3781Z" fill="#727272"/>
<path d="M28.4663 12.7333L30.7673 14.0799L32.2734 15.8202" fill="#6F6F6F"/>
<path d="M10.2203 12.5793L12.5288 10.0719L14.578 8.95135L15.456 9.63076L15.3448 10.3484L11.4668 13.7443L10.1864 13.6719L10.2203 12.5793Z" fill="#979797"/>
</g>
<defs>
<filter id="filter0_d_18_130" x="0" y="0" width="35" height="25" filterUnits="userSpaceOnUse" color-interpolation-filters="sRGB">
<feFlood flood-opacity="0" result="BackgroundImageFix"/>
<feColorMatrix in="SourceAlpha" type="matrix" values="0 0 0 0 0 0 0 0 0 0 0 0 0 0 0 0 0 0 127 0" result="hardAlpha"/>
<feOffset dx="-2" dy="-2"/>
<feGaussianBlur stdDeviation="2"/>
<feComposite in2="hardAlpha" operator="out"/>
<feColorMatrix type="matrix" values="0 0 0 0 0 0 0 0 0 0 0 0 0 0 0 0 0 0 0.25 0"/>
<feBlend mode="normal" in2="BackgroundImageFix" result="effect1_dropShadow_18_130"/>
<feBlend mode="normal" in="SourceGraphic" in2="effect1_dropShadow_18_130" result="shape"/>
</filter>
</defs>
</svg>
