<?xml version="1.0" encoding="UTF-8" standalone="no"?>
<!-- Created with Inkscape (http://www.inkscape.org/) -->

<svg
   width="12.46875"
   height="7.59375"
   viewBox="0 0 12.46875 7.59375"
   version="1.1"
   id="svg1"
   inkscape:export-filename="rock2.svg"
   inkscape:export-xdpi="96"
   inkscape:export-ydpi="96"
   xmlns:inkscape="http://www.inkscape.org/namespaces/inkscape"
   xmlns:sodipodi="http://sodipodi.sourceforge.net/DTD/sodipodi-0.dtd"
   xmlns="http://www.w3.org/2000/svg"
   xmlns:svg="http://www.w3.org/2000/svg">
  <sodipodi:namedview
     id="namedview1"
     pagecolor="#ffffff"
     bordercolor="#111111"
     borderopacity="1"
     inkscape:showpageshadow="0"
     inkscape:pageopacity="0"
     inkscape:pagecheckerboard="1"
     inkscape:deskcolor="#d1d1d1"
     inkscape:document-units="px" />
  <defs
     id="defs1" />
  <g
     inkscape:label="Layer 1"
     inkscape:groupmode="layer"
     id="layer1"
     style="display:inline"
     transform="translate(-11.46875,-14.78125)">
    <path
       style="fill:#aaaaaa;fill-opacity:1"
       d="m 12.5,19.5 4.09375,-2.03125 1.625,-0.25 3.5,1.375 0.5,0.0625 1.53125,-0.875 0.1875,-0.5 -0.25,-0.75 -6.09375,-1.75 H 17.125 l -5.4375,2.3125 -0.21875,0.5 z"
       id="path189" />
    <path
       style="fill:#838383;fill-opacity:1"
       d="m 11.46875,17.59375 v 4.625 L 12.25,20.96875 12.5,22.375 V 19.5"
       id="path191" />
    <path
       style="fill:#727272;fill-opacity:1"
       d="M 11.46875,22.21875 C 12.5,22.375 12.5,22.375 12.5,22.375 l -0.25,-1.40625 -0.78125,1.25"
       id="path192" />
    <path
       style="fill:#919191;fill-opacity:1"
       d="M 12.5,22.375 17.703125,21.671875 16.59375,17.46875 12.5,19.5 v 2.875"
       id="path193" />
    <path
       style="fill:#b3b3b3;fill-opacity:1"
       d="m 16.59375,17.46875 1.625,-0.25 3.5,1.375 0.3125,3.078125 h -4.328125 z"
       id="path194" />
    <path
       style="fill:#8e8e8e;fill-opacity:1"
       d="m 21.71875,18.59375 0.5,0.0625 0.375,3.015625 h -0.5625 l -0.3125,-3.078125"
       id="path195" />
    <path
       style="fill:#929292;fill-opacity:1"
       d="M 22.59375,21.671875 C 23.9375,20.96875 23.9375,20.96875 23.9375,20.96875 l -0.1875,-3.1875 -1.53125,0.875 z"
       id="path196" />
    <path
       style="fill:#767676;fill-opacity:1"
       d="m 23.9375,20.96875 v -3.6875 l -0.1875,0.5 0.1875,3.1875"
       id="path197" />
  </g>
</svg>
