<?xml version="1.0" encoding="UTF-8" standalone="no"?>
<!-- Created with Inkscape (http://www.inkscape.org/) -->

<svg
   width="11.30954"
   height="7.1897984"
   viewBox="0 0 11.30954 7.1897984"
   version="1.1"
   id="svg1"
   inkscape:export-filename="rock1.svg"
   inkscape:export-xdpi="96"
   inkscape:export-ydpi="96"
   xmlns:inkscape="http://www.inkscape.org/namespaces/inkscape"
   xmlns:sodipodi="http://sodipodi.sourceforge.net/DTD/sodipodi-0.dtd"
   xmlns="http://www.w3.org/2000/svg"
   xmlns:svg="http://www.w3.org/2000/svg">
  <sodipodi:namedview
     id="namedview1"
     pagecolor="#ffffff"
     bordercolor="#111111"
     borderopacity="1"
     inkscape:showpageshadow="0"
     inkscape:pageopacity="0"
     inkscape:pagecheckerboard="1"
     inkscape:deskcolor="#d1d1d1"
     inkscape:document-units="px" />
  <defs
     id="defs1" />
  <g
     inkscape:label="Layer 1"
     inkscape:groupmode="layer"
     id="layer1"
     style="display:inline"
     transform="translate(-10.251675,-15.263605)">
    <path
       style="fill:#7f7f7f;fill-opacity:1"
       d="m 10.260164,20.074234 2.626999,-4.262677 6.146185,-0.545226 2.527866,2.626999 -0.297396,1.536546 -8.277523,3.023527 -2.726131,-1.437415 z"
       id="path162" />
    <path
       style="fill:#636363;fill-opacity:1;stroke-width:0.997559"
       d="m 10.251675,20.065244 2.761057,1.294989 0.0177,1.053258 -2.761057,-1.381321 z"
       id="path163" />
    <path
       style="fill:#727272;fill-opacity:1"
       d="m 12.915358,21.344513 6.326248,-2.243101 0.560775,-1.261745 -0.771066,-2.576062 2.505965,2.628635 -0.280388,1.542132 -8.271437,2.996644 z"
       id="path164" />
    <path
       style="fill:#6f6f6f;fill-opacity:1"
       d="m 19.662187,18.111293 0.963833,0.569537 0.630872,0.736018"
       id="path165" />
    <path
       style="fill:#979797;fill-opacity:1;stroke-width:0.695331"
       d="m 12.019425,18.046198 0.966991,-1.060449 0.85836,-0.473926 0.367767,0.287338 -0.04659,0.303532 -1.6244,1.436224 -0.536314,-0.03064 z"
       id="path166"
       inkscape:transform-center-x="0.035021674"
       inkscape:transform-center-y="0.086356347" />
  </g>
</svg>
