<?xml version="1.0" encoding="UTF-8" standalone="no"?>
<!-- Created with Inkscape (http://www.inkscape.org/) -->

<svg
   width="16.042486"
   height="6.3553619"
   viewBox="0 0 16.042486 6.3553619"
   version="1.1"
   id="svg1"
   inkscape:export-filename="rock1.svg"
   inkscape:export-xdpi="96"
   inkscape:export-ydpi="96"
   xmlns:inkscape="http://www.inkscape.org/namespaces/inkscape"
   xmlns:sodipodi="http://sodipodi.sourceforge.net/DTD/sodipodi-0.dtd"
   xmlns="http://www.w3.org/2000/svg"
   xmlns:svg="http://www.w3.org/2000/svg">
  <sodipodi:namedview
     id="namedview1"
     pagecolor="#ffffff"
     bordercolor="#111111"
     borderopacity="1"
     inkscape:showpageshadow="0"
     inkscape:pageopacity="0"
     inkscape:pagecheckerboard="1"
     inkscape:deskcolor="#d1d1d1"
     inkscape:document-units="px" />
  <defs
     id="defs1" />
  <g
     inkscape:label="Layer 1"
     inkscape:groupmode="layer"
     id="layer1"
     style="display:inline"
     transform="translate(-11.004349,-17.191544)">
    <path
       style="fill:#b1b1b1;fill-opacity:1"
       d="m 12.197592,22.892582 1.06066,-1.325825 3.314563,-1.237437 0.883884,-0.04419 -1.104855,0.972272 0.618719,-0.04419 1.944543,0.574525 1.104855,-0.30936 h 1.237437 l 0.751301,-0.972271 1.458407,0.618718 0.662913,0.662913 2.474874,0.441941 0.441941,-0.22097 -0.618718,-2.077127 -2.12132,-0.839689 -0.397748,-0.353553 -4.110058,-1.149049 -6.098796,-0.397747 v 0.441941 l -2.695845,2.386486 0.53033,0.486136 0.618719,-0.132583 0.751301,-0.08839 -1.193243,1.325825 -0.618718,1.502602 z"
       id="path171" />
    <path
       style="fill:#8d8d8d;fill-opacity:1"
       d="m 16.328125,21.21875 0.546875,0.1875 -0.140625,2.140625 3.59375,-0.328125 0.890625,-0.28125 0.01563,-1.453125 -1.26563,-0.03125 L 18.90625,21.75 16.9375,21.171875 Z"
       id="path172" />
    <path
       style="fill:#a1a1a1;fill-opacity:1;stroke-width:1.0489"
       d="m 21.15796,22.958873 0.828641,-0.408426 -0.591886,-1.282001 -0.189403,0.215557 z"
       id="path173" />
    <path
       style="fill:#636363;fill-opacity:1;stroke-width:1.02623"
       d="m 21.931359,22.533049 0.795495,0.337435 -0.740252,-2.408582 -0.585573,0.826132 z"
       id="path174" />
    <path
       style="fill:#8a8a8a;fill-opacity:1"
       d="m 26.428116,19.931581 0.618718,2.077127 -0.441941,0.22097 z"
       id="path175" />
    <path
       style="fill:#757575;fill-opacity:1"
       d="m 26.516504,21.080629 -0.74715,0.999846 0.835539,0.149203 z"
       id="path176" />
    <path
       style="fill:#8a8a8a;fill-opacity:1"
       d="m 22.726854,22.870484 1.403165,-1.082747 -0.662913,-0.662913 -0.740252,1.74566"
       id="path177" />
    <path
       style="fill:#aaaaaa;fill-opacity:1"
       d="m 22.008699,20.506106 1.458407,0.618718 -0.740252,1.74566 z"
       id="path178" />
    <path
       style="fill:#949494;fill-opacity:1"
       d="m 26.142929,21.580552 -1.478703,0.302579 1.105128,0.197344 z"
       id="path179" />
    <path
       style="fill:#b1b1b1;fill-opacity:1"
       d="m 16.875,21.40625 -1.540867,-0.614489 -2.075881,0.774996 2.143418,1.980118 h 0.751301 z"
       id="path180" />
    <path
       style="fill:#8a8a8a;fill-opacity:1"
       d="m 12.197592,22.892582 3.204078,0.654293 -2.143418,-1.980118 z"
       id="path181" />
    <path
       style="fill:#7c7c7c;fill-opacity:1"
       d="m 16.875,21.40625 c -0.140625,2.140625 -0.140625,2.140625 -0.140625,2.140625 h -0.581404 z"
       id="path182" />
    <path
       style="fill:#8a8a8a;fill-opacity:1"
       d="m 16.328125,21.21875 c 0.24469,-0.88943 0.24469,-0.88943 0.24469,-0.88943 l -1.238682,0.462441 z"
       id="path183" />
    <path
       style="fill:#656565;fill-opacity:1"
       d="m 16.351844,21.257402 c 1.104855,-0.972272 1.104855,-0.972272 1.104855,-0.972272 l -0.883884,0.04419 -0.24469,0.88943 v 0"
       id="path184" />
    <path
       style="fill:#656565;fill-opacity:1"
       d="m 11.534679,20.506106 0.618719,-0.132583 0.751301,-0.08839 -1.193243,1.325825 z"
       id="path185" />
    <path
       style="fill:#828282;fill-opacity:1"
       d="m 11.004349,20.01997 0.08839,3.09359 0.618718,-1.502602 -0.176777,-1.104852 -0.53033,-0.486136"
       id="path186" />
    <path
       style="fill:#aeaeae;fill-opacity:1"
       d="m 13.700194,17.633484 -0.629882,-0.441941 h 0.629882"
       id="path187" />
    <path
       style="fill:#868686;fill-opacity:1"
       d="m 13.070312,17.191543 v 0.999542 l 0.629882,-0.557601 -0.629882,-0.441941"
       id="path188" />
    <path
       style="fill:#afafaf;fill-opacity:1"
       d="m 26.516504,21.080629 -0.373575,0.499923 -1.478703,0.302579 -0.534207,-0.09539 -0.662913,-0.662913 -1.480504,-0.662922 -0.591887,0.806544 -0.189403,0.215557 -1.185351,-0.0056 -1.113711,0.271623 -1.935687,-0.536788 -0.618719,0.04419 1.104855,-0.972272 -0.883884,0.04419 -1.238682,0.462441 1.540867,0.614489 -0.722029,2.140625 H 15.40167 l -2.143418,-1.980118 -1.06066,1.325825 -1.104853,0.220978 0.618717,-1.502602 1.193243,-1.325825 L 11.53468,20.506136 11.00435,20.02 13.700194,17.633514 13.070312,17.191573 h 0.629882 l 6.098796,0.397747 4.110058,1.149049 0.397748,0.353553 2.12132,0.839689 0.06467,0.840656 0.02372,0.242093 h -0.05524 l -0.03315,-1.082749 -2.176563,-0.817601 -0.375651,-0.353553 -4.076912,-1.138 -6.127115,-0.388052 -0.558594,-0.02734 0.582032,0.417969 -0.807187,0.770825 -1.839583,1.613087 0.486136,0.441942 0.602146,-0.127058 0.756825,-0.03867 -1.121427,1.353446 -0.679485,1.463932 0.618718,-0.160204 0.469563,-0.05524 1.033039,-1.342398 0.04972,-0.0221 2.021884,1.856155 0.104961,0.149155 h 0.734728 l 0.72368,-2.099223 -1.618612,-0.64634 0.624243,-0.381175 0.690534,-0.09944 0.972272,-0.03315 -1.071709,0.922553 0.546903,-0.04972 1.911398,0.591097 1.093806,-0.342505 1.204291,0.09391 0.784446,-1.077233 1.508127,0.690534 0.624242,0.679485 0.552428,0.06629 1.447359,-0.281737 0.331456,-0.486136 z"
       id="path189" />
  </g>
</svg>
